<svg xmlns="http://www.w3.org/2000/svg" width="32" height="32" viewBox="0 0 32 32"><circle cx="16" cy="16" r="14" fill="#1E40AF"/><path d="M16 2 C8 2 2 8 2 16 C2 24 8 30 16 30 C24 30 30 24 30 16 C30 8 24 2 16 2 M16 2 C16 8 16 24 16 30 M2 16 L30 16 M7 6 C11 8 21 8 25 6 M7 26 C11 24 21 24 25 26" stroke="#ffffff" fill="none" stroke-width="1"/><circle cx="10" cy="12" r="2" fill="#4CAF50"/><circle cx="22" cy="12" r="2" fill="#4CAF50"/><circle cx="16" cy="18" r="2" fill="#4CAF50"/><path d="M10 12 L16 18 L22 12" stroke="#4CAF50" stroke-width="1"/></svg>
